<svg xmlns="http://www.w3.org/2000/svg" version="1.1" xmlns:xlink="http://www.w3.org/1999/xlink" viewBox="0 0 200 200"><rect width="200" height="200" fill="url('#gradient')"></rect><defs><linearGradient id="gradient" gradientTransform="rotate(0 0.5 0.5)"><stop offset="0%" stop-color="#000000"></stop><stop offset="100%" stop-color="#000000"></stop></linearGradient></defs><g><g fill="#f10000" transform="matrix(3.9250196902074035,0,0,3.9250196902074035,27.113052882061254,127.91114680564883)" stroke="#dbdbdb" stroke-width="0.5"><path d="M9.98 0L9.15-2.66L4.45-2.66L3.63 0L-0.03 0L5.19-14.22L8.41-14.22L13.66 0L9.98 0ZM6.80-10.23L5.27-5.30L8.33-5.30L6.80-10.23ZM23.65-8.30L23.65-5.66L18.13-5.66L18.13 0L14.70 0L14.70-14.22L24.21-14.22L24.21-11.57L18.13-11.57L18.13-8.30L23.65-8.30ZM33.73-4.81L37.14-4.81Q37.07-3.33 36.34-2.19Q35.61-1.05 34.28-0.43Q32.96 0.20 31.26 0.20L31.26 0.20Q28.46 0.20 26.85-1.63Q25.23-3.46 25.23-6.79L25.23-6.79L25.23-7.49Q25.23-9.58 25.96-11.15Q26.69-12.71 28.06-13.57Q29.42-14.42 31.22-14.42L31.22-14.42Q33.81-14.42 35.38-13.06Q36.95-11.70 37.17-9.31L37.17-9.31L33.75-9.31Q33.71-10.61 33.10-11.17Q32.48-11.74 31.22-11.74L31.22-11.74Q29.94-11.74 29.35-10.78Q28.75-9.82 28.72-7.72L28.72-7.72L28.72-6.72Q28.72-4.44 29.29-3.47Q29.86-2.49 31.26-2.49L31.26-2.49Q32.44-2.49 33.07-3.05Q33.69-3.60 33.73-4.81L33.73-4.81Z"></path></g></g></svg>

